HIERARCHY
ROOT Pelvis
{
	OFFSET 0.000000 0.000000 0.000000
	CHANNELS 6 Xposition Yposition Zposition Xrotation Yrotation Zrotation
	JOINT LeftUpLeg_virtual
	{
		OFFSET 0.000000 0.000000 0.000000
		CHANNELS 3 Xrotation Yrotation Zrotation
		JOINT LeftUpLeg
		{
			OFFSET 18.735201 -5.666702 -4.541200
			CHANNELS 3 Xrotation Yrotation Zrotation
			JOINT LeftLeg
			{
				OFFSET -0.021200 -31.938179 0.493100
				CHANNELS 3 Xrotation Yrotation Zrotation
				JOINT LeftFoot
				{
					OFFSET 0.021200 -31.938179 -4.336299
					CHANNELS 3 Xrotation Yrotation Zrotation
					JOINT LeftToeBase
					{
						OFFSET 0.943001 -26.722000 15.023500
						CHANNELS 3 Xrotation Yrotation Zrotation
						End Site
						{
							OFFSET 0 0 0
						}
					}
				}
			}
		}
	}
	JOINT RightUpLeg_virtual
	{
		OFFSET 0.000000 0.000000 0.000000
		CHANNELS 3 Xrotation Yrotation Zrotation
		JOINT RightUpLeg
		{
			OFFSET -18.735201 -5.666702 -4.541200
			CHANNELS 3 Xrotation Yrotation Zrotation
			JOINT RightLeg
			{
				OFFSET 0.018946 -31.938133 0.493100
				CHANNELS 3 Xrotation Yrotation Zrotation
				JOINT RightFoot
				{
					OFFSET -0.018946 -31.938126 -4.336299
					CHANNELS 3 Xrotation Yrotation Zrotation
					JOINT RightToeBase
					{
						OFFSET -0.943001 -26.722004 15.023500
						CHANNELS 3 Xrotation Yrotation Zrotation
						End Site
						{
							OFFSET 0 0 0
						}
					}
				}
			}
		}
	}
	JOINT Hips_virtual
	{
		OFFSET 0.000000 0.000000 0.000000
		CHANNELS 3 Xrotation Yrotation Zrotation
		JOINT Hips
		{
			OFFSET -0.000000 -0.000000 -0.000000
			CHANNELS 3 Xrotation Yrotation Zrotation
			JOINT Spine
			{
				OFFSET 0.000000 10.199997 -0.299500
				CHANNELS 3 Xrotation Yrotation Zrotation
				JOINT Spine1
				{
					OFFSET 0.000000 11.900002 -1.516600
					CHANNELS 3 Xrotation Yrotation Zrotation
					JOINT Spine2
					{
						OFFSET 0.000000 13.600006 -2.842500
						CHANNELS 3 Xrotation Yrotation Zrotation
						JOINT Neck_virtual
						{
							OFFSET 0.000000 0.000000 0.000000
							CHANNELS 3 Xrotation Yrotation Zrotation
							JOINT Neck
							{
								OFFSET 0.000000 9.624100 -2.890100
								CHANNELS 3 Xrotation Yrotation Zrotation
								JOINT Head
								{
									OFFSET 0.000000 14.068802 -1.351900
									CHANNELS 3 Xrotation Yrotation Zrotation
									End Site
									{
										OFFSET 0 0 0
									}
								}
							}
						}
						JOINT LeftShoulder_virtual
						{
							OFFSET 0.000000 0.000000 0.000000
							CHANNELS 3 Xrotation Yrotation Zrotation
							JOINT LeftShoulder
							{
								OFFSET 15.263000 10.923401 -0.547700
								CHANNELS 3 Xrotation Yrotation Zrotation
								JOINT LeftArm
								{
									OFFSET 25.438599 -2.830597 -13.032500
									CHANNELS 3 Xrotation Yrotation Zrotation
									JOINT LeftForeArm
									{
										OFFSET 29.960503 0.000000 0.000000
										CHANNELS 3 Xrotation Yrotation Zrotation
										JOINT LeftHand
										{
											OFFSET 27.849251 0.000000 0.000000
											CHANNELS 3 Xrotation Yrotation Zrotation
											End Site
											{
												OFFSET 0 0 0
											}
										}
									}
								}
							}
						}
						JOINT RightShoulder_virtual
						{
							OFFSET 0.000000 0.000000 0.000000
							CHANNELS 3 Xrotation Yrotation Zrotation
							JOINT RightShoulder
							{
								OFFSET -15.263000 10.923401 -0.547700
								CHANNELS 3 Xrotation Yrotation Zrotation
								JOINT RightArm
								{
									OFFSET -25.438599 -2.830597 -13.032500
									CHANNELS 3 Xrotation Yrotation Zrotation
									JOINT RightForeArm
									{
										OFFSET -29.960503 0.000000 0.000000
										CHANNELS 3 Xrotation Yrotation Zrotation
										JOINT RightHand
										{
											OFFSET -27.849251 0.000000 0.000000
											CHANNELS 3 Xrotation Yrotation Zrotation
											End Site
											{
												OFFSET 0 0 0
											}
										}
									}
								}
							}
						}
					}
				}
			}
		}
	}
}
MOTION
Frames: 9
Frame Time: 0.03333333
11.866159 57.677338 -37.633507 0.000000 0.000000 0.000000 48.225042 -31.208869 16.725115 -75.072044 -3.644837 -0.523266 97.901254 -6.781094 2.142072 20.646292 -5.960248 -12.654186 0.000000 0.000000 0.000000 48.758255 -30.653493 15.664761 -106.726951 -3.217895 -21.055844 120.511284 -6.223027 5.610329 -33.268127 -12.432514 8.615412 0.000000 0.000000 0.000000 48.332239 -30.230253 16.783974 -1.416488 -0.792607 -2.517632 29.105140 11.024374 4.383517 7.635891 2.243123 1.259633 0.000000 0.000000 0.000000 5.703835 2.100631 1.222670 -3.145196 -2.003921 1.075784 0.000000 0.000000 0.000000 6.542705 2.360275 1.030547 5.061053 -22.415173 -8.333591 -32.030217 -18.481493 -45.646595 -0.847824 -36.491150 -0.524935 0.000000 0.000000 0.000000 6.793152 2.598050 0.806217 -0.640520 28.570861 14.239109 -48.145238 48.581285 14.260196 -1.342278 19.334348 1.876753 0.000000 0.000000 0.000000 
12.215395 58.164040 -37.359314 0.000000 0.000000 0.000000 47.341315 -32.252351 16.666987 -78.963298 -4.010222 -0.054086 101.530332 -6.342442 2.416556 22.747528 -5.438556 -11.888124 0.000000 0.000000 0.000000 47.801482 -31.802433 15.691147 -105.257873 -3.432465 -20.671677 120.006943 -6.084247 5.787694 -35.012298 -12.589550 7.797800 0.000000 0.000000 0.000000 47.594869 -31.275238 16.833105 -1.480483 -0.870599 -2.587897 29.401786 10.879837 3.786267 7.736386 2.200568 1.128258 0.000000 0.000000 0.000000 5.727145 2.065599 1.086034 -2.967910 -1.901001 0.913296 0.000000 0.000000 0.000000 6.554170 2.309037 0.851971 5.303890 -23.384486 -8.321594 -30.287016 -16.301054 -44.926505 -1.066563 -37.941793 -0.594426 0.000000 0.000000 0.000000 6.762460 2.552775 0.656175 -0.357442 28.045059 13.931270 -47.001776 47.588899 15.032959 -1.164860 21.537504 1.824031 0.000000 0.000000 0.000000 
12.537683 58.664188 -36.870407 0.000000 0.000000 0.000000 46.407396 -33.180171 16.707343 -82.934384 -4.457705 0.790371 104.970773 -5.979804 2.585121 24.251191 -4.922132 -11.319038 0.000000 0.000000 0.000000 46.793609 -32.816593 15.822937 -103.519542 -3.473224 -20.445478 119.241716 -5.919769 5.814936 -36.784889 -12.704271 7.437261 0.000000 0.000000 0.000000 46.745282 -32.192331 16.971142 -1.550350 -0.947031 -2.710945 29.847595 10.736689 3.030460 7.855280 2.189141 0.941349 0.000000 0.000000 0.000000 5.807198 2.059366 0.886120 -2.774068 -1.760985 0.711678 0.000000 0.000000 0.000000 6.582613 2.285888 0.618219 5.526760 -24.302167 -8.233493 -28.895074 -14.494230 -43.985896 -1.246054 -39.214715 -0.725488 0.000000 0.000000 0.000000 6.741646 2.539835 0.459070 0.020843 27.581897 13.138102 -45.387119 46.773132 15.309097 -0.993042 24.008168 1.863527 0.000000 0.000000 0.000000 
12.776899 59.274399 -36.147842 0.000000 0.000000 0.000000 45.507460 -34.016231 16.861159 -86.610972 -5.086154 1.946691 108.051605 -5.616979 2.766760 24.937495 -4.397767 -10.923359 0.000000 0.000000 0.000000 45.881724 -33.677873 16.089108 -101.450856 -3.325048 -20.295757 117.868329 -5.567586 5.602810 -37.541356 -12.706866 8.151000 0.000000 0.000000 0.000000 45.848096 -32.982229 17.172726 -1.629828 -1.062234 -2.753835 30.400072 10.589287 2.183714 7.984229 2.205687 0.715589 0.000000 0.000000 0.000000 5.922428 2.070513 0.632472 -2.580653 -1.597186 0.486071 0.000000 0.000000 0.000000 6.635429 2.292665 0.358163 5.715463 -25.116636 -8.036811 -27.810046 -13.021208 -42.735391 -1.375629 -40.291846 -0.902082 0.000000 0.000000 0.000000 6.744529 2.547853 0.236125 0.477356 27.073065 11.851743 -43.855057 46.205837 15.601940 -0.839588 26.410079 1.936434 0.000000 0.000000 0.000000 
12.953566 60.103432 -35.084465 0.000000 0.000000 0.000000 44.671606 -34.713736 17.115231 -89.771444 -5.973267 3.370305 110.450839 -5.180284 2.993355 25.105122 -3.952826 -10.832153 0.000000 0.000000 0.000000 45.062252 -34.300500 16.388364 -99.056198 -3.109942 -20.274638 115.814532 -5.027968 5.263887 -37.181760 -12.776750 9.585153 0.000000 0.000000 0.000000 44.986136 -33.626022 17.422964 -1.731881 -1.055575 -2.760434 30.972623 10.383824 1.346775 8.114576 2.224240 0.479391 0.000000 0.000000 0.000000 6.024737 2.078599 0.355921 -2.424737 -1.426440 0.262914 0.000000 0.000000 0.000000 6.714003 2.301351 0.104654 5.860168 -25.815456 -7.717531 -27.079192 -11.830629 -41.162514 -1.448524 -41.163539 -1.086579 0.000000 0.000000 0.000000 6.781577 2.559965 0.022259 0.960721 26.385909 10.118451 -42.979648 45.955668 16.402628 -0.705550 28.551654 1.974790 0.000000 0.000000 0.000000 
12.988970 61.176689 -33.771568 0.000000 0.000000 0.000000 43.939010 -35.214222 17.421412 -92.459581 -7.150245 4.986279 111.993615 -4.587138 3.274913 25.158274 -3.576890 -10.995088 0.000000 0.000000 0.000000 44.368554 -34.610023 16.691430 -96.285443 -3.016620 -20.344135 113.318241 -4.439480 4.972087 -36.437338 -13.144276 10.783802 0.000000 0.000000 0.000000 44.183490 -34.028037 17.670681 -1.842548 -0.940356 -2.760545 31.501877 10.058587 0.606269 8.251613 2.213280 0.278821 0.000000 0.000000 0.000000 6.096750 2.054236 0.107222 -2.328257 -1.262408 0.072665 0.000000 0.000000 0.000000 6.824507 2.281911 -0.108064 5.932796 -26.441865 -7.323129 -26.807190 -10.889397 -39.301516 -1.464620 -41.915805 -1.239806 0.000000 0.000000 0.000000 6.847168 2.537293 -0.152647 1.407738 25.408912 8.083424 -43.187535 46.083843 17.919071 -0.587833 30.478456 1.960874 0.000000 0.000000 0.000000 
12.874681 62.463280 -32.283356 0.000000 0.000000 0.000000 43.230040 -35.431135 17.745293 -94.903573 -8.661390 6.774060 112.724028 -3.857482 3.592659 25.455832 -3.261799 -11.418891 0.000000 0.000000 0.000000 43.709095 -34.632843 16.991482 -92.924888 -3.169942 -20.448036 110.560334 -3.985235 4.873035 -36.539593 -14.076847 10.914670 0.000000 0.000000 0.000000 43.426343 -34.125848 17.898168 -1.946405 -0.802797 -2.763499 31.972413 9.555203 0.009119 8.389732 2.140174 0.147108 0.000000 0.000000 0.000000 6.145042 1.976656 -0.072164 -2.302920 -1.114345 -0.059915 0.000000 0.000000 0.000000 6.964917 2.204832 -0.256783 5.929457 -27.043830 -6.853026 -26.944376 -10.260975 -37.190066 -1.411214 -42.750349 -1.325422 0.000000 0.000000 0.000000 6.932653 2.449636 -0.267795 1.766463 24.075969 5.869318 -44.648718 46.541285 20.209362 -0.507702 32.213583 1.881905 0.000000 0.000000 0.000000 
12.626802 63.903568 -30.679543 0.000000 0.000000 0.000000 42.542649 -35.317983 18.121641 -97.132598 -10.457336 8.654019 112.506166 -3.077507 3.894862 25.851865 -3.100168 -12.190231 0.000000 0.000000 0.000000 43.027238 -34.392584 17.328514 -89.007016 -3.455286 -20.563985 107.528658 -3.705126 4.937060 -37.914431 -15.576183 10.065811 0.000000 0.000000 0.000000 42.698822 -33.900783 18.196396 -2.089820 -0.628880 -2.781982 32.425538 8.844787 -0.452079 8.558456 1.993485 0.081859 0.000000 0.000000 0.000000 6.214244 1.839444 -0.171704 -2.343963 -0.990001 -0.122326 0.000000 0.000000 0.000000 7.140343 2.052604 -0.350294 5.875862 -27.615725 -6.305341 -27.446779 -10.163288 -34.885936 -1.278550 -43.624056 -1.320340 0.000000 0.000000 0.000000 7.069361 2.289347 -0.331677 2.021921 22.425850 3.536681 -47.102262 47.220233 23.054043 -0.456356 33.790831 1.753884 0.000000 0.000000 0.000000 
12.167936 65.436943 -29.047348 0.000000 0.000000 0.000000 41.835196 -34.979096 18.621227 -98.995901 -12.326257 10.569124 110.941335 -2.433554 4.148475 25.991691 -3.246773 -13.425550 0.000000 0.000000 0.000000 42.330207 -34.073311 17.861901 -84.736058 -3.699409 -20.674677 104.020325 -3.419493 4.979277 -39.568987 -17.274611 9.191631 0.000000 0.000000 0.000000 41.937563 -33.437444 18.622605 -2.086957 -0.639522 -2.854513 32.939721 7.956039 -0.844696 8.772235 1.789349 0.055193 0.000000 0.000000 0.000000 6.367037 1.650947 -0.213926 -2.420266 -0.889184 -0.120659 0.000000 0.000000 0.000000 7.348189 1.846185 -0.416351 5.791937 -28.111126 -5.680411 -28.218752 -10.730144 -32.393627 -1.100297 -44.293415 -1.254112 0.000000 0.000000 0.000000 7.259148 2.068794 -0.372342 2.182059 20.642022 1.187288 -50.262416 47.934257 26.286166 -0.455097 35.104457 1.600496 0.000000 0.000000 0.000000 
